<?xml version="1.0" encoding="UTF-8"?>
<svg version="1.1" xmlns="http://www.w3.org/2000/svg" width="512" height="512">
<path d="M0 0 C1.58259645 0.32738275 3.16533247 0.65409139 4.74819946 0.98016357 C8.04264507 1.661726 11.33513059 2.35191288 14.62646484 3.04833984 C18.83254041 3.93750124 23.04295817 4.80376094 27.25511742 5.66357803 C30.51541871 6.33187653 33.77301895 7.01265159 37.02995682 7.69713593 C38.58159362 8.02159347 40.13405886 8.34211649 41.68735886 8.65851593 C43.85746318 9.10241185 46.02333334 9.56315842 48.18896484 10.02832031 C49.41851898 10.28591125 50.64807312 10.5435022 51.91488647 10.80889893 C56.47338259 12.22808722 60.08087109 13.90238922 62.64689636 18.05874634 C63.5406219 21.95648121 63.57573974 25.68182644 63.5637207 29.66943359 C63.5713871 30.9850251 63.5713871 30.9850251 63.57920837 32.32719421 C63.59308569 35.22080345 63.59214887 38.11417398 63.58984375 41.0078125 C63.59373194 43.0241403 63.59806687 45.04046729 63.60282898 47.05679321 C63.61028737 51.28170426 63.61000283 55.50653174 63.60473633 59.73144531 C63.59894484 65.13734216 63.6158669 70.54289603 63.639081 75.94873619 C63.65383586 80.1129658 63.6546876 84.27711317 63.65157127 88.44136429 C63.65208369 90.43400374 63.65730642 92.42664789 63.66738319 94.41926193 C63.67976298 97.20990823 63.67294642 99.99989112 63.66137695 102.79052734 C63.66902069 103.60842239 63.67666443 104.42631744 63.68453979 105.26899719 C63.63219532 111.00084838 62.79556875 116.07054478 58.81298828 120.50170898 C58.03157471 121.04807007 58.03157471 121.04807007 57.234375 121.60546875 C56.63044922 122.04181641 56.02652344 122.47816406 55.40429688 122.92773438 C54.74751953 123.37955078 54.09074219 123.83136719 53.4140625 124.296875 C51.96767943 125.3357507 50.52242516 126.37619922 49.078125 127.41796875 C48.30500977 127.96952637 47.53189453 128.52108398 46.73535156 129.08935547 C42.35431278 132.25926876 38.07924111 135.56815609 33.7890625 138.859375 C27.01329191 144.03400922 20.21566249 149.17707029 13.38671875 154.28125 C6.92968018 159.11428491 0.5209268 164.0101381 -5.88964844 168.90454102 C-12.23405809 173.74469652 -18.6041102 178.54905829 -25.00195312 183.31835938 C-27.9695112 185.45439379 -27.9695112 185.45439379 -30.7109375 187.859375 C-30.8038101 189.27162546 -30.82840522 190.68846434 -30.82446289 192.10375977 C-30.82438736 193.00461807 -30.82431183 193.90547638 -30.82423401 194.83363342 C-30.81907272 195.81279221 -30.81391144 196.79195099 -30.80859375 197.80078125 C-30.8071788 198.79818832 -30.80576385 199.7955954 -30.80430603 200.82322693 C-30.79868864 204.02280624 -30.78613321 207.22231669 -30.7734375 210.421875 C-30.76842474 212.58528545 -30.76386145 214.74869699 -30.75976562 216.91210938 C-30.74871357 222.22788825 -30.73195854 227.54362671 -30.7109375 232.859375 C-30.33807617 231.99248047 -29.96521484 231.12558594 -29.58105469 230.23242188 C-28.18138235 226.98128973 -26.77961259 223.7310782 -25.37646484 220.48144531 C-24.77244664 219.08141166 -24.16923877 217.6810281 -23.56689453 216.28027344 C-22.13306494 212.9465602 -20.68868386 209.6187021 -19.21533203 206.30224609 C-18.36071266 204.34641318 -17.53334793 202.37666891 -16.79638672 200.37353516 C-14.12639493 193.64698932 -8.32920246 190.81738334 -2.3359375 187.234375 C-0.63354261 186.18191403 1.06884301 185.12943714 2.77032471 184.07550049 C4.49897096 183.0084477 6.23269657 181.95011262 7.96777344 180.89355469 C12.78203665 177.94497772 17.53473017 174.90325121 22.2890625 171.859375 C24.08432728 170.71696355 25.87990417 169.57504242 27.67578125 168.43359375 C33.82310785 164.52146001 39.9633945 160.59835982 46.1015625 156.671875 C47.06642578 156.05505859 48.03128906 155.43824219 49.02539062 154.80273438 C50.9508444 153.57039223 52.86441695 152.31926897 54.76502991 151.0489502 C57.22846414 149.45240798 59.71924774 148.15246213 62.37632751 146.90771484 C69.18319981 143.49167642 74.77917235 140.04991926 77.75874329 132.77970886 C79.82675525 126.49885572 81.13461614 120.05933141 82.4609375 113.58984375 C83.00111898 111.21948901 83.54788808 108.85062689 84.10089111 106.48323059 C85.53264632 100.28520589 86.88488916 94.0726498 88.2175293 87.85266113 C90.37061569 77.87840042 92.65310544 67.9326815 94.91989899 57.98378944 C95.69919943 54.51706071 96.44957546 51.04510056 97.19451904 47.57084656 C97.66417439 45.44323438 98.13414829 43.31569249 98.60449219 41.18823242 C98.90214478 39.74571861 98.90214478 39.74571861 99.20581055 38.27406311 C100.49403512 32.5549938 101.75815656 28.72594563 106.2890625 24.859375 C111.87510228 23.46067331 116.54918701 23.94337668 122.15454102 25.16699219 C123.26596466 25.39363052 123.26596466 25.39363052 124.39984131 25.62484741 C126.82532239 26.12286616 129.24650772 26.63906835 131.66796875 27.15625 C133.36593663 27.51011882 135.06409595 27.86307019 136.76243591 28.21514893 C140.31201656 28.95383584 143.85963692 29.70112623 147.40600586 30.45507812 C151.93783997 31.41817681 156.47316119 32.36344349 161.0099802 33.30274582 C164.51402788 34.02961111 168.01645805 34.76402848 171.51841545 35.50089264 C173.18967493 35.8519903 174.86132905 36.20121512 176.53338814 36.5484848 C178.87487629 37.03637064 181.2141039 37.53393456 183.55297852 38.03417969 C184.23525009 38.17457672 184.91752167 38.31497375 185.62046814 38.45962524 C190.71810461 39.56600334 196.12981933 40.75680995 199.96508217 44.49140072 C201.78854722 47.7527168 201.70752658 50.74428487 201.67674255 54.38288879 C201.68482086 55.52514428 201.68482086 55.52514428 201.69306237 56.69047564 C201.70738202 59.24539308 201.7002277 61.79979523 201.69311523 64.35473633 C201.69881795 66.18678199 201.70578183 68.0188241 201.71391296 69.8508606 C201.73190319 74.83813426 201.73066101 79.82523244 201.72497058 84.81252885 C201.72187686 88.99511304 201.7279756 93.17766362 201.73400933 97.36024302 C201.74808178 107.26094233 201.74648011 117.1615555 201.73510742 127.06225586 C201.72371643 137.20128797 201.73754201 147.34005276 201.7645039 157.4790495 C201.78687477 166.22605786 201.79324811 174.97298371 201.78742748 183.72001857 C201.78409589 188.92393817 201.7862099 194.12768801 201.80367851 199.33158302 C202.06078433 284.09779707 177.16061946 360.58899849 119.2890625 423.859375 C118.37818008 424.87434877 117.4680535 425.89000126 116.55859375 426.90625 C112.03442967 431.93849204 107.49349962 436.80899652 102.296875 441.1640625 C100.00169841 443.10201316 97.80906687 445.13472467 95.6015625 447.171875 C80.68362154 460.59121002 63.74595707 472.0156601 46.2890625 481.859375 C45.16733643 482.49311035 45.16733643 482.49311035 44.02294922 483.13964844 C-9.18925251 512.85513046 -9.18925251 512.85513046 -30.32397461 508.2956543 C-33.13650445 507.48872395 -35.88739839 506.57794845 -38.6484375 505.609375 C-40.19120361 505.07908691 -40.19120361 505.07908691 -41.76513672 504.53808594 C-87.46007978 488.3878203 -134.73146354 460.5704459 -166.1328125 422.74609375 C-167.95880832 420.56303439 -169.89629142 418.50455253 -171.8359375 416.421875 C-186.71925442 399.89049061 -198.77049978 381.15449091 -209.7109375 361.859375 C-210.08573242 361.20839844 -210.46052734 360.55742187 -210.84667969 359.88671875 C-235.07584846 317.54448206 -246.81614028 267.70489872 -246.88793945 219.15673828 C-246.89421516 217.28147764 -246.90086292 215.4062182 -246.90785217 213.53096008 C-246.92873749 207.41387778 -246.93922978 201.29679563 -246.94921875 195.1796875 C-246.95327007 193.06767642 -246.9573871 190.95566546 -246.96156883 188.84365463 C-246.98057464 178.93223091 -246.99482353 169.02081448 -247.0031808 159.10937607 C-247.0129808 147.67822703 -247.03939131 136.24727019 -247.07968169 124.81618893 C-247.10980255 115.96670368 -247.12464524 107.11727376 -247.12796181 98.26773822 C-247.1303139 92.98648119 -247.13929765 87.70543063 -247.16442299 82.42422867 C-247.18764265 77.46483866 -247.19196167 72.50579213 -247.18166161 67.54636192 C-247.1811649 65.72625144 -247.187525 63.90612434 -247.20121765 62.08606529 C-247.21885656 59.60287072 -247.21187114 57.12092031 -247.19868469 54.63772583 C-247.20965394 53.91662223 -247.22062318 53.19551863 -247.23192483 52.45256341 C-247.18654298 48.91706023 -246.77623472 46.96269027 -244.87019634 43.94689751 C-242.03200351 41.20299701 -239.82931122 40.71430352 -235.98046875 39.875 C-235.2924971 39.71976868 -234.60452545 39.56453735 -233.89570618 39.40460205 C-232.35387758 39.06037536 -230.80987997 38.72576813 -229.26422119 38.39916992 C-226.53298636 37.82175399 -223.80837063 37.21802247 -221.08349609 36.61132812 C-215.92882452 35.47150217 -210.76669079 34.3707204 -205.6003418 33.28515625 C-203.45571591 32.83252 -201.31215949 32.37478823 -199.16967773 31.91210938 C-196.02288572 31.2325497 -192.8732771 30.56780246 -189.72265625 29.90625 C-188.77968185 29.70006042 -187.83670746 29.49387085 -186.86515808 29.28143311 C-180.56402638 27.98242079 -174.1398033 27.02102312 -167.7109375 27.859375 C-164.5234375 30.234375 -164.5234375 30.234375 -162.7109375 32.859375 C-162.7109375 33.519375 -162.7109375 34.179375 -162.7109375 34.859375 C-155.1209375 33.209375 -147.5309375 31.559375 -139.7109375 29.859375 C-139.0509375 27.219375 -138.3909375 24.579375 -137.7109375 21.859375 C-135.59304432 19.56385207 -134.35268045 18.98459314 -131.30859375 18.390625 C-126.62149899 18.33284879 -124.43197292 18.31138808 -120.5859375 21.234375 C-118.7109375 23.859375 -118.7109375 23.859375 -118.7109375 25.859375 C-117.44636719 25.570625 -116.18179688 25.281875 -114.87890625 24.984375 C-113.21878795 24.60920702 -111.5586296 24.23421624 -109.8984375 23.859375 C-108.64836914 23.57320312 -108.64836914 23.57320312 -107.37304688 23.28125 C-106.57060547 23.10078125 -105.76816406 22.9203125 -104.94140625 22.734375 C-104.20301514 22.56679688 -103.46462402 22.39921875 -102.70385742 22.2265625 C-100.7109375 21.859375 -100.7109375 21.859375 -97.7109375 21.859375 C-97.6284375 20.786875 -97.5459375 19.714375 -97.4609375 18.609375 C-96.61641207 14.38674785 -96.00578518 13.47654936 -92.7109375 10.859375 C-89.67285156 9.77832031 -89.67285156 9.77832031 -85.9765625 8.9375 C-85.2883844 8.77775696 -84.6002063 8.61801392 -83.89117432 8.45343018 C-81.50124444 7.9052429 -79.10666011 7.38164024 -76.7109375 6.859375 C-74.84046814 6.44217676 -72.97002669 6.02485338 -71.09960938 5.60742188 C-65.95775495 4.46968664 -60.80851448 3.3700491 -55.65527344 2.28515625 C-53.5174045 1.83287704 -51.38068117 1.37514997 -49.24511719 0.91210938 C-46.1059286 0.23155246 -42.96367983 -0.43279638 -39.8203125 -1.09375 C-38.88249939 -1.29993958 -37.94468628 -1.50612915 -36.97845459 -1.71856689 C-24.14255211 -4.36497749 -12.63490097 -2.67395229 0 0 Z " fill="#010100" transform="translate(278.7109375,3.140625)"/>
<path d="M0 0 C0.79893677 0.1533783 1.59787354 0.30675659 2.42102051 0.46478271 C5.29008074 1.01697455 8.15283286 1.59589261 11.015625 2.1796875 C12.59304474 2.49983322 12.59304474 2.49983322 14.20233154 2.82644653 C16.42140024 3.27760028 18.64024797 3.72984211 20.85888672 4.18310547 C24.22410533 4.86971667 27.59051162 5.55026925 30.95703125 6.23046875 C33.12247139 6.67150419 35.28783838 7.11289895 37.453125 7.5546875 C38.9427475 7.85486282 38.9427475 7.85486282 40.46246338 8.16110229 C47.05465682 9.51557807 53.5282388 11.15491713 60 13 C61.68876091 34.03050094 61.68876091 34.03050094 58.25390625 40.0703125 C55.92042775 41.92690226 53.56565216 43.43183196 50.94775391 44.85449219 C46.86108674 47.25793194 43.19566534 50.30850711 39.4375 53.1875 C37.68887435 54.49402892 35.93886311 55.79870536 34.1875 57.1015625 C29.3874617 60.69268908 24.65428342 64.36305179 19.9375 68.0625 C13.09890274 73.42056844 6.149062 78.60434276 -0.86621094 83.72827148 C-7.35825751 88.48602185 -13.72189623 93.39557597 -20.0390625 98.3828125 C-23.08754069 100.78087326 -26.09145535 103.09898084 -29.38671875 105.1484375 C-32.12447394 107.0881923 -32.80723203 107.96318898 -34 111 C-34.24973786 113.08151123 -34.24973786 113.08151123 -34.13716125 115.28363037 C-34.10838394 116.55718132 -34.10838394 116.55718132 -34.07902527 117.85646057 C-34.03277763 119.24187294 -34.03277763 119.24187294 -33.9855957 120.65527344 C-33.93649416 122.68575373 -33.8881334 124.71625203 -33.84040833 126.74676514 C-33.79802505 128.36159916 -33.79802505 128.36159916 -33.75478554 130.00905609 C-33.59148099 136.93427927 -33.54134353 143.86148363 -33.46735859 150.7881279 C-33.3959488 156.86336248 -33.28746885 162.93355517 -33.09838867 169.00634766 C-31.81788518 211.6835257 -31.81788518 211.6835257 -39.47412109 220.58789062 C-43.70072979 224.25103535 -48.16405112 226.66160343 -53.31967163 228.77209473 C-57.96169518 230.89868685 -63.65582422 234.31164843 -66 239 C-66.13548522 241.71288133 -66.21268346 244.39885113 -66.23828125 247.11328125 C-66.25038887 248.32312935 -66.25038887 248.32312935 -66.26274109 249.55741882 C-66.27658143 251.26636607 -66.28730382 252.97534096 -66.29516602 254.68432617 C-66.31236506 257.2920403 -66.35624794 259.89848187 -66.40039062 262.50585938 C-66.41051897 264.16665735 -66.41903463 265.8274661 -66.42578125 267.48828125 C-66.44328934 268.26553055 -66.46079742 269.04277985 -66.47883606 269.84358215 C-66.46404821 273.55339767 -66.13796456 275.77465973 -64.18432617 278.96557617 C-61.12949619 281.8107643 -59.14092618 282.07139528 -55 282 C-50.27764102 279.57568581 -50.27764102 279.57568581 -48 275 C-48.0941119 273.04538212 -48.24278949 271.09320169 -48.421875 269.14453125 C-49.48654664 250.51661656 -49.48654664 250.51661656 -45.04101562 244.22949219 C-38.80510615 238.16913766 -31.18184511 233.85225632 -23.60131836 229.6796875 C-15.02361619 224.1828463 -12.26808373 214.65451979 -8.5625 205.625 C-7.79692695 203.81508312 -7.02856788 202.00634241 -6.25756836 200.19873047 C-4.6474883 196.4170491 -3.04967815 192.63053794 -1.4609375 188.83984375 C2.19325164 180.14126896 5.96333109 171.49338571 9.74758911 162.85076904 C10.92284513 160.15857041 12.08698431 157.46177024 13.24975586 154.76416016 C13.9669099 153.1160476 14.68441997 151.4680899 15.40234375 149.8203125 C15.72344116 149.06907104 16.04453857 148.31782959 16.37536621 147.54382324 C18.96908094 141.63401921 21.61796468 139.10522327 26.98828125 135.69921875 C27.99310547 135.05919922 28.99792969 134.41917969 30.03320312 133.75976562 C31.11537109 133.07591797 32.19753906 132.39207031 33.3125 131.6875 C34.44619468 130.96716053 35.57965515 130.24645231 36.71289062 129.52539062 C39.0281367 128.05307931 41.34472718 126.58292229 43.66259766 125.11474609 C48.446247 122.08358511 53.22282152 119.04134404 58 116 C59.79296309 114.85936611 61.58593192 113.71874122 63.37890625 112.578125 C83.24044339 99.97872539 83.24044339 99.97872539 102.9375 87.125 C103.54005615 86.72635742 104.1426123 86.32771484 104.76342773 85.91699219 C109.791642 82.55236557 111.27714831 80.64544364 112.76953125 74.76171875 C113.01160812 73.81807213 113.01160812 73.81807213 113.25857544 72.85536194 C113.78347226 70.80109822 114.29814915 68.74442719 114.8125 66.6875 C115.17020581 65.2782064 115.52836202 63.86902705 115.88696289 62.45996094 C118.18932089 53.38014548 120.41776358 44.28258918 122.5402832 35.15893555 C123.26165511 32.05841436 123.99264146 29.02207562 125 26 C128.25031727 26.64424333 131.50019606 27.29067263 134.75 27.9375 C135.67039062 28.11990234 136.59078125 28.30230469 137.5390625 28.49023438 C138.87324219 28.75610352 138.87324219 28.75610352 140.234375 29.02734375 C141.45979004 29.27085571 141.45979004 29.27085571 142.70996094 29.51928711 C144.82252295 29.96274496 146.90772511 30.47046663 149 31 C149.04700646 47.32643267 149.08212766 63.65284293 149.10362434 79.9793272 C149.113877 87.56233183 149.12782022 95.14529408 149.15087891 102.72827148 C149.17099914 109.34815577 149.18375992 115.96800933 149.18817699 122.58792335 C149.19075333 126.08351791 149.19667829 129.57902466 149.21146011 133.07459068 C149.29719688 154.19814405 148.74522021 174.74713706 143.875 195.375 C143.64873932 196.35166122 143.64873932 196.35166122 143.41790771 197.34805298 C135.83842806 229.9234477 122.21944098 260.3134849 102 287 C101.5884668 287.55429687 101.17693359 288.10859375 100.75292969 288.6796875 C89.28639981 304.09866184 76.0652443 318.0633468 61 330 C60.36594238 330.50370117 59.73188477 331.00740234 59.07861328 331.52636719 C49.82466259 338.81182898 40.28192351 345.2614321 30 351 C29.32855957 351.37753418 28.65711914 351.75506836 27.96533203 352.14404297 C23.03991048 354.89319588 18.05514894 357.49780845 13 360 C12.25862793 360.3702832 11.51725586 360.74056641 10.75341797 361.12207031 C8.53961578 362.20526749 6.30822002 363.23488031 4.0625 364.25 C3.40137207 364.57436035 2.74024414 364.8987207 2.05908203 365.23291016 C-2.96331438 367.39715417 -6.28942815 366.88166522 -11.38647461 365.06445312 C-15.9310645 363.21350386 -20.39223535 361.25731211 -24.8125 359.125 C-25.8037085 358.64740234 -26.79491699 358.16980469 -27.81616211 357.67773438 C-47.32120279 348.07468092 -64.67123421 336.03123193 -80.55859375 321.25390625 C-82.64051229 319.33187905 -84.76425897 317.50374045 -86.9375 315.6875 C-118.88464791 287.79091072 -139.36521247 247.08429159 -151 207 C-151.25040039 206.1531665 -151.50080078 205.30633301 -151.75878906 204.43383789 C-153.73038155 197.53884416 -155.03390788 190.64587001 -156.125 183.5625 C-156.29386719 182.52029297 -156.46273437 181.47808594 -156.63671875 180.40429688 C-158.44940504 168.89302528 -159.14982265 157.53576152 -159.11352539 145.88769531 C-159.11367142 144.63748596 -159.11381744 143.38727661 -159.1139679 142.09918213 C-159.11339562 138.71154637 -159.10842287 135.32397356 -159.10139394 131.93634892 C-159.09509057 128.38096876 -159.09455113 124.82558752 -159.09336853 121.27020264 C-159.09027562 114.55572695 -159.08209007 107.84126779 -159.07201904 101.12679935 C-159.06079411 93.47491563 -159.05533146 85.82303107 -159.05032361 78.17114115 C-159.03990548 62.44741791 -159.02234604 46.72371109 -159 31 C-156.96721436 30.5275738 -154.93421226 30.05607899 -152.90112305 29.58496094 C-151.76901901 29.32229431 -150.63691498 29.05962769 -149.47050476 28.78900146 C-143.93401218 27.53030826 -138.37467676 26.38879675 -132.8125 25.25 C-131.57927002 24.99613525 -130.34604004 24.74227051 -129.07543945 24.48071289 C-126.43096286 23.93649971 -123.78638443 23.39281696 -121.14160156 22.85009766 C-114.71790192 21.53190215 -108.29511061 20.20929081 -101.8722229 18.887146 C-99.67616342 18.43516678 -97.48005182 17.98344144 -95.28393555 17.53173828 C-86.49678553 15.72379811 -77.71305772 13.90013041 -68.93237305 12.06103516 C-61.9669683 10.60694594 -54.99592028 9.1813862 -48.0234375 7.76171875 C-47.04122223 7.56155151 -46.05900696 7.36138428 -45.04702759 7.15515137 C-40.07426928 6.14179229 -35.10116419 5.13019674 -30.12744141 4.12158203 C-28.27244513 3.74389273 -26.41746402 3.36612892 -24.5625 2.98828125 C-23.29507462 2.73228401 -23.29507462 2.73228401 -22.00204468 2.47111511 C-20.79640366 2.22498222 -20.79640366 2.22498222 -19.56640625 1.97387695 C-18.41035889 1.7381749 -18.41035889 1.7381749 -17.23095703 1.49771118 C-15.07067943 1.01576809 -12.96687591 0.42305693 -10.83984375 -0.18676758 C-6.66259258 -1.07145881 -4.16237619 -0.85903422 0 0 Z " fill="#FEE3B1" transform="translate(261,72)"/>
<path d="M0 0 C3.92786772 1.00215034 7.86896353 1.78755151 11.859375 2.5078125 C19.00467975 3.8089193 26.12115017 5.22886805 33.234375 6.6953125 C34.30824463 6.91372803 35.38211426 7.13214355 36.48852539 7.35717773 C37.4861792 7.56415283 38.48383301 7.77112793 39.51171875 7.984375 C40.41011475 8.1695166 41.30851074 8.3546582 42.23413086 8.54541016 C44.296875 9.0703125 44.296875 9.0703125 45.296875 10.0703125 C45.38471042 12.28886514 45.40382109 14.51019746 45.39453125 16.73046875 C45.39240883 17.72716835 45.39240883 17.72716835 45.39024353 18.7440033 C45.38463018 20.87365149 45.37207554 23.00319589 45.359375 25.1328125 C45.35436171 26.57356619 45.34979851 28.01432153 45.34570312 29.45507812 C45.33465645 32.99352352 45.31738292 36.53190789 45.296875 40.0703125 C38.35321269 39.41046286 31.63166419 38.23441927 24.8046875 36.8203125 C23.73693085 36.60213867 22.66917419 36.38396484 21.56906128 36.15917969 C19.32820244 35.70047124 17.08773865 35.23982904 14.84765625 34.77734375 C11.41237825 34.06835251 7.97584382 33.36572644 4.5390625 32.6640625 C2.35669482 32.21651636 0.17440048 31.76861236 -2.0078125 31.3203125 C-3.03591034 31.10987305 -4.06400818 30.89943359 -5.1232605 30.68261719 C-6.07500153 30.48571289 -7.02674255 30.28880859 -8.00732422 30.0859375 C-8.84399628 29.91352539 -9.68066833 29.74111328 -10.54269409 29.56347656 C-12.703125 29.0703125 -12.703125 29.0703125 -15.703125 28.0703125 C-21.53213274 27.72352343 -26.68565654 28.747505 -32.328125 30.0078125 C-40.71079009 31.82028063 -49.10303183 33.56302202 -57.515625 35.23046875 C-58.47995453 35.42180893 -59.44428406 35.61314911 -60.43783569 35.81028748 C-64.3508184 36.58601743 -68.26395454 37.3609221 -72.17803955 38.131073 C-83.53820915 40.36788063 -94.84800269 42.74834018 -106.13067627 45.34915161 C-112.75434416 46.87122715 -119.39116268 48.22918559 -126.078125 49.4453125 C-137.52061045 51.58365218 -148.88263189 54.02522179 -160.23974609 56.57177734 C-161.49867676 56.85230957 -162.75760742 57.1328418 -164.0546875 57.421875 C-165.29766602 57.70063477 -166.54064453 57.97939453 -167.82128906 58.26660156 C-170.56887597 58.83547301 -173.27806884 59.33880099 -176.04589844 59.77246094 C-176.76538666 59.88995697 -177.48487488 60.007453 -178.22616577 60.12850952 C-180.23340229 60.44983453 -182.24432694 60.74787061 -184.25537109 61.04443359 C-188.65646927 62.35398001 -190.00960056 63.31037378 -192.703125 67.0703125 C-193.45160754 71.3604374 -193.35455878 75.61187354 -193.30249023 79.95678711 C-193.30643295 81.26817154 -193.31037567 82.57955597 -193.31443787 83.93067932 C-193.3244142 87.52708794 -193.30322315 91.12270816 -193.27595782 94.71900249 C-193.25204119 98.50434828 -193.25507186 102.28968061 -193.25465393 106.0750885 C-193.25002266 112.44985154 -193.22638982 118.82431648 -193.19018555 125.19897461 C-193.14875444 132.51217356 -193.13088839 139.82510274 -193.1275658 147.13841242 C-193.12392472 154.97736595 -193.10496312 162.81622562 -193.08044553 170.65513921 C-193.07429252 172.88343995 -193.07060852 175.11173347 -193.06741142 177.34004021 C-193.02949898 198.23594573 -192.44056718 218.93880487 -188.828125 239.5703125 C-188.65740479 240.56949707 -188.48668457 241.56868164 -188.31079102 242.59814453 C-186.94983511 250.28053821 -185.09224364 257.63951763 -182.703125 265.0703125 C-182.39217896 266.1519165 -182.39217896 266.1519165 -182.07495117 267.25537109 C-168.28401673 315.10263519 -138.76138202 360.09502328 -99.703125 391.0703125 C-98.84332031 391.79734375 -97.98351562 392.524375 -97.09765625 393.2734375 C-77.77864006 409.59615132 -44.0903535 434.65504314 -18.19580078 434.3203125 C-13.86306336 433.88576567 -10.11426806 432.27750439 -6.140625 430.5703125 C-5.27147461 430.2086499 -4.40232422 429.8469873 -3.50683594 429.47436523 C4.62267588 426.03993672 12.50901161 422.21489261 20.296875 418.0703125 C20.94043945 417.73451172 21.58400391 417.39871094 22.24707031 417.05273438 C38.7065546 408.42603301 53.40004818 397.35210269 67.296875 385.0703125 C68.18890625 384.28914063 69.0809375 383.50796875 70 382.703125 C78.73676594 374.9579552 86.7820896 366.91006356 94 357.71777344 C94.91109988 356.56037472 95.82832575 355.40778486 96.75 354.25878906 C124.45327225 319.68216707 142.84140634 279.19641021 149.91064453 235.45703125 C150.24206479 233.40901327 150.59365409 231.36427699 150.94921875 229.3203125 C153.09202599 216.55731462 153.44496201 203.69504587 153.48974609 190.77880859 C153.49767927 189.42511808 153.50594997 188.07142951 153.51452637 186.71774292 C153.54030903 182.34309798 153.55597845 177.96844529 153.5703125 173.59375 C153.57568456 172.07607649 153.58106205 170.558403 153.58644485 169.04072952 C153.60798174 162.73332986 153.6267233 156.42593236 153.63806725 150.11850548 C153.65436912 141.12157285 153.68780154 132.12506712 153.74446809 123.1282953 C153.78313614 116.77127943 153.80269437 110.41437815 153.80798781 104.05724776 C153.8116367 100.27047612 153.82361441 96.48416463 153.85609055 92.69752121 C153.8861278 89.14641717 153.89249942 85.59605335 153.88070679 82.0448494 C153.88038068 80.12431152 153.90485774 78.20381949 153.93008423 76.28344727 C153.9668508 69.60449623 153.9668508 69.60449623 150.95829773 63.82687378 C147.81345422 61.75125074 145.30681904 61.00091767 141.60546875 60.3046875 C139.69411133 59.92957031 139.69411133 59.92957031 137.74414062 59.546875 C136.40765059 59.30414446 135.07106087 59.06196224 133.734375 58.8203125 C132.39353579 58.56429728 131.05303546 58.30650047 129.71289062 58.046875 C127.25490021 57.5739452 124.7953123 57.10919245 122.33374023 56.65527344 C119.9589382 56.1978391 117.63271142 55.69148073 115.296875 55.0703125 C115.9118565 48.46899211 117.47326595 42.41569096 119.359375 36.0703125 C119.64103516 35.10480469 119.92269531 34.13929687 120.21289062 33.14453125 C120.90211779 30.78480434 121.59687511 28.42686165 122.296875 26.0703125 C127.68625315 26.69725551 132.99502096 27.51309171 138.3203125 28.55859375 C139.06536041 28.70306442 139.81040833 28.8475351 140.57803345 28.99638367 C142.14977027 29.30186535 143.72124989 29.60867312 145.29248047 29.91674805 C147.63046926 30.37470214 149.96944097 30.82733085 152.30859375 31.27929688 C153.85422978 31.58040536 155.39980451 31.88182873 156.9453125 32.18359375 C157.61476898 32.31292801 158.28422546 32.44226227 158.97396851 32.57551575 C167.44900186 34.24488898 175.86865031 36.18165776 184.296875 38.0703125 C184.34377421 60.02051885 184.37895112 81.97071684 184.40049934 103.92096329 C184.41077431 114.11480645 184.42476159 124.30861833 184.44775391 134.50244141 C184.46780434 143.3962636 184.48061884 152.2900631 184.48505199 161.18390727 C184.48763981 165.8850363 184.49364168 170.58610049 184.50833511 175.28720856 C184.62022407 212.52646242 184.62022407 212.52646242 182.296875 229.0703125 C182.14163361 230.3206427 181.98639221 231.5709729 181.82644653 232.85919189 C181.3954789 236.27982073 180.86544612 239.66981987 180.296875 243.0703125 C180.12381836 244.12726318 180.12381836 244.12726318 179.94726562 245.20556641 C177.46959687 259.9552417 173.18317178 273.95383542 168.296875 288.0703125 C167.8330542 289.42576172 167.8330542 289.42576172 167.35986328 290.80859375 C158.1117167 317.49767442 144.49992746 342.67016197 127.296875 365.0703125 C126.69673584 365.86332764 126.69673584 365.86332764 126.08447266 366.67236328 C111.78108853 385.54466003 95.11522335 403.65033551 76.296875 418.0703125 C74.86601563 419.22660156 74.86601563 419.22660156 73.40625 420.40625 C50.29236441 438.81605335 7.18937371 469.73682291 -23.703125 467.0703125 C-27.06118672 466.20793089 -30.27335239 465.0426211 -33.515625 463.8203125 C-34.94165039 463.28893677 -34.94165039 463.28893677 -36.39648438 462.74682617 C-61.83283027 453.04746777 -86.02667581 440.60926742 -107.703125 424.0703125 C-108.27434082 423.64041016 -108.84555664 423.21050781 -109.43408203 422.76757812 C-128.23396078 408.5809442 -146.45220101 391.83919246 -160.703125 373.0703125 C-161.62982976 371.8838188 -162.55694155 370.69764294 -163.484375 369.51171875 C-170.74417984 360.12899787 -177.22917286 350.35452085 -183.39257812 340.22167969 C-184.5184387 338.37348979 -185.6636127 336.53708954 -186.8125 334.703125 C-216.86518878 284.90507458 -224.08447256 229.07003327 -223.90591288 172.20837712 C-223.89323842 167.47725725 -223.89222207 162.74613362 -223.88986206 158.01499939 C-223.88369562 149.09445916 -223.86735174 140.17396913 -223.84716308 131.25345081 C-223.82465166 121.08141311 -223.81377269 110.90937275 -223.80377221 100.73731625 C-223.78298004 79.8482872 -223.7479003 58.95930304 -223.703125 38.0703125 C-219.11528824 37.12151347 -214.52721372 36.17387482 -209.93893433 35.22721863 C-208.38463178 34.90637526 -206.83038978 34.58523842 -205.2762146 34.26377869 C-194.45141596 32.02509198 -183.61981566 29.83873707 -172.75360107 27.80831909 C-169.1089876 27.10920533 -166.31699383 26.47286511 -163.1953125 24.42578125 C-161.08034092 21.36015512 -161.08034092 21.36015512 -159.703125 14.0703125 C-152.113125 12.4203125 -144.523125 10.7703125 -136.703125 9.0703125 C-136.043125 6.4303125 -135.383125 3.7903125 -134.703125 1.0703125 C-132.58523182 -1.22521043 -131.34486795 -1.80446936 -128.30078125 -2.3984375 C-123.61368649 -2.45621371 -121.42416042 -2.47767442 -117.578125 0.4453125 C-115.703125 3.0703125 -115.703125 3.0703125 -115.703125 5.0703125 C-114.45015625 4.7815625 -113.1971875 4.4928125 -111.90625 4.1953125 C-110.25525948 3.82008738 -108.60421496 3.44509979 -106.953125 3.0703125 C-106.128125 2.87953125 -105.303125 2.68875 -104.453125 2.4921875 C-103.65390625 2.31171875 -102.8546875 2.13125 -102.03125 1.9453125 C-101.2980957 1.77773438 -100.56494141 1.61015625 -99.80957031 1.4375 C-97.703125 1.0703125 -97.703125 1.0703125 -93.703125 1.0703125 C-91.515625 4.0078125 -91.515625 4.0078125 -89.703125 7.0703125 C-88.14280011 8.63063739 -86.6640983 8.26616298 -84.4921875 8.30078125 C-77.83660451 8.22877157 -71.55453854 6.81403063 -65.078125 5.3828125 C-63.81355469 5.11388184 -62.54898438 4.84495117 -61.24609375 4.56787109 C-55.13287407 3.26566946 -49.02962789 1.92146169 -42.9296875 0.55859375 C-27.52148927 -2.84804125 -15.33963528 -3.93306473 0 0 Z " fill="#FDCC61" transform="translate(275.703125,23.9296875)"/>
<path d="M0 0 C3.125 2 3.125 2 5 5 C5.62765226 8.95420925 5.9698237 11.34559486 3.9375 14.8125 C2.17382593 16.99609646 0.52660168 18.73669916 -2 20 C-6.63466801 20.41197049 -9.35466537 19.95567673 -13 17 C-14.96512324 14.27418389 -16.08211593 12.35491287 -15.875 8.9375 C-15.19701829 5.64444597 -14.69733639 3.66828071 -12.21875 1.29296875 C-8.31445572 -0.98224499 -4.36960642 -0.73415035 0 0 Z " fill="#030201" transform="translate(155,22)"/>
</svg>
